<svg xmlns="http://www.w3.org/2000/svg" version="1.1" xmlns:xlink="http://www.w3.org/1999/xlink" xmlns:svgjs="http://svgjs.dev/svgjs" width="1024" height="1191" preserveAspectRatio="none" viewBox="0 0 1024 1191"><g mask="url(&quot;#SvgjsMask5794&quot;)" fill="none"><rect width="1024" height="1191" x="0" y="0" fill="url(&quot;#SvgjsRadialGradient5795&quot;)"></rect><path d="M21.14 210.25 a206.68 206.68 0 1 0 413.36 0 a206.68 206.68 0 1 0 -413.36 0z" fill="rgba(222, 158, 72, 0.54)" class="triangle-float2"></path><path d="M626.93 223.03 a202.73 202.73 0 1 0 405.46 0 a202.73 202.73 0 1 0 -405.46 0z" fill="rgba(222, 158, 72, 0.54)" class="triangle-float1"></path><path d="M386.47 801.65 a312.64 312.64 0 1 0 625.28 0 a312.64 312.64 0 1 0 -625.28 0z" fill="rgba(222, 158, 72, 0.54)" class="triangle-float3"></path><path d="M598.61 1139.18 a178.79 178.79 0 1 0 357.58 0 a178.79 178.79 0 1 0 -357.58 0z" fill="rgba(222, 158, 72, 0.54)" class="triangle-float3"></path></g><defs><mask id="SvgjsMask5794"><rect width="1024" height="1191" fill="#ffffff"></rect></mask><radialGradient cx="0%" cy="0%" r="1570.69" gradientUnits="userSpaceOnUse" id="SvgjsRadialGradient5795"><stop stop-color="rgba(86, 55, 39, 1)" offset="0"></stop><stop stop-color="rgba(55, 44, 46, 1)" offset="0.53"></stop></radialGradient><style>
                @keyframes float1 {
                    0%{transform: translate(0, 0)}
                    50%{transform: translate(-10px, 0)}
                    100%{transform: translate(0, 0)}
                }

                .triangle-float1 {
                    animation: float1 5s infinite;
                }

                @keyframes float2 {
                    0%{transform: translate(0, 0)}
                    50%{transform: translate(-5px, -5px)}
                    100%{transform: translate(0, 0)}
                }

                .triangle-float2 {
                    animation: float2 4s infinite;
                }

                @keyframes float3 {
                    0%{transform: translate(0, 0)}
                    50%{transform: translate(0, -10px)}
                    100%{transform: translate(0, 0)}
                }

                .triangle-float3 {
                    animation: float3 6s infinite;
                }
            </style></defs></svg>